<?xml version="1.0" standalone="no"?>
<!DOCTYPE svg PUBLIC "-//W3C//DTD SVG 20010904//EN"
 "http://www.w3.org/TR/2001/REC-SVG-20010904/DTD/svg10.dtd">
<svg version="1.0" xmlns="http://www.w3.org/2000/svg"
 width="640.000000pt" height="640.000000pt" viewBox="0 0 640.000000 640.000000"
 preserveAspectRatio="xMidYMid meet">

<g transform="translate(0.000000,640.000000) scale(0.100000,-0.100000)"
fill="#000000" stroke="none">
<path d="M3098 5852 c-108 -79 -287 -174 -450 -238 -388 -152 -706 -172 -1203
-75 -64 12 -96 -2 -112 -49 -8 -24 -12 -142 -12 -389 l-1 -354 67 -126 c81
-155 228 -371 332 -491 31 -36 70 -83 86 -105 48 -65 241 -252 385 -373 342
-286 745 -538 1094 -684 121 -51 437 -158 536 -182 242 -58 396 -76 633 -76
167 0 174 1 194 23 27 28 102 180 158 316 117 286 224 831 251 1281 3 63 8
126 9 140 3 32 -6 49 -78 145 -147 195 -380 442 -548 581 -311 256 -401 311
-674 409 -183 67 -332 145 -479 254 -38 28 -78 51 -90 51 -11 0 -56 -26 -98
-58z"/>
<path d="M4922 5539 c-115 -22 -344 -41 -452 -37 -63 3 -121 3 -128 0 -7 -2
24 -33 70 -70 236 -191 432 -375 586 -549 l82 -93 0 323 c0 177 -5 340 -10
362 -16 69 -50 84 -148 64z"/>
<path d="M1374 3898 c3 -13 8 -48 11 -78 11 -104 74 -395 115 -532 60 -202
178 -470 261 -590 68 -99 201 -269 277 -355 124 -140 400 -414 517 -515 243
-207 569 -428 634 -428 78 0 331 168 636 422 169 141 560 541 549 560 -3 5
-56 8 -117 8 -298 1 -560 52 -951 187 -469 161 -929 419 -1322 741 -233 191
-464 418 -561 553 -37 53 -56 63 -49 27z"/>
<path d="M3057 1082 c-10 -10 -17 -30 -17 -44 0 -25 157 -464 186 -519 23 -46
96 -55 131 -17 28 31 205 511 201 546 -2 16 -13 32 -29 41 -52 29 -66 7 -148
-238 -41 -121 -77 -221 -80 -221 -4 0 -39 98 -79 219 -40 120 -81 226 -91 235
-23 21 -54 20 -74 -2z"/>
<path d="M4225 1075 l-25 -24 0 -266 c0 -165 4 -274 10 -286 13 -22 71 -27 89
-6 6 9 12 85 13 207 l3 194 129 -197 c71 -109 137 -202 147 -207 27 -15 76
-12 93 6 14 13 16 54 16 294 0 277 0 279 -22 294 -28 20 -39 20 -64 2 -17 -13
-19 -31 -24 -211 l-5 -197 -129 196 c-70 108 -138 203 -149 211 -31 21 -54 19
-82 -10z"/>
<path d="M1740 1084 c-38 -15 -40 -31 -40 -299 0 -241 1 -263 18 -278 16 -14
44 -17 183 -17 151 0 169 2 209 23 60 29 93 91 87 160 -4 51 -28 85 -81 117
-28 18 -28 18 -7 30 59 31 79 130 38 190 -43 65 -74 75 -242 77 -82 1 -157 0
-165 -3z m281 -104 c22 -12 34 -50 25 -85 -10 -38 -54 -55 -146 -55 l-80 0 0
73 c0 41 3 77 8 81 9 11 169 -1 193 -14z m25 -254 c35 -30 37 -87 5 -120 -19
-18 -35 -21 -126 -24 l-105 -4 0 86 0 86 99 0 c91 0 102 -2 127 -24z"/>
<path d="M2308 1079 c-28 -16 -23 -65 8 -86 24 -15 29 -15 53 -2 31 17 39 59
16 83 -19 18 -51 20 -77 5z"/>
<path d="M3681 1078 c-15 -8 -28 -27 -34 -47 -5 -19 -7 -143 -5 -276 3 -267 5
-275 64 -275 52 0 64 27 64 141 l0 97 103 4 c86 3 109 7 146 28 63 36 83 78
79 165 -4 82 -26 122 -85 151 -49 24 -294 32 -332 12z m219 -87 c52 -11 80
-40 80 -85 0 -65 -50 -96 -157 -96 l-53 0 0 95 0 95 43 0 c23 -1 62 -5 87 -9z"/>
<path d="M2306 914 c-13 -13 -16 -46 -16 -205 0 -112 4 -198 10 -210 7 -13 21
-19 45 -19 24 0 38 6 45 19 6 12 10 98 10 209 0 170 -2 191 -18 205 -23 21
-56 22 -76 1z"/>
<path d="M2526 914 c-14 -13 -16 -47 -16 -213 0 -212 2 -221 52 -221 45 0 56
29 60 171 5 169 13 182 105 177 58 -3 67 -1 80 18 13 20 12 24 -9 49 -17 20
-36 28 -69 32 -41 5 -50 2 -82 -27 -32 -27 -37 -29 -37 -13 0 41 -53 58 -84
27z"/>
</g>
</svg>
